<p>[gdigrab @ 000002733799c1c0] Capturing whole desktop as 1844x1040x32 at (76,36)
</p><p>[gdigrab @ 000002733799c1c0] Stream #0: not enough frames to estimate rate; consider increasing probesize
</p><p>Input #0, gdigrab, from 'desktop':
  Duration: N/A, start: 1520231958.776387, bitrate: 1534218 kb/s
</p><p>    Stream #0:0: Video: bmp, bgra, 1844x1040, 1534218 kb/s, 25 fps, 1000k tbr, 1000k tbn, 1000k tbc
</p><p>Stream mapping:
  Stream #0:0 -> #0:0 (bmp (native) -> h264 (libx264))
Press [q] to stop, [?] for help
</p><p>[libx264 @ 00000273379a3240] using cpu capabilities: MMX2 SSE2Fast SSSE3 SSE4.2 AVX FMA3 BMI2 AVX2
</p><p>[libx264 @ 00000273379a3240] profile High, level 3.1
</p><p>[libx264 @ 00000273379a3240] 264 - core 155 r2893 b00bcaf - H.264/MPEG-4 AVC codec - Copyleft 2003-2017 - http://www.videolan.org/x264.html - options: cabac=1 ref=3 deblock=1:0:0 analyse=0x3:0x113 me=hex subme=7 psy=1 psy_rd=1.00:0.00 mixed_ref=1 me_range=16 chroma_me=1 trellis=1 8x8dct=1 cqm=0 deadzone=21,11 fast_pskip=1 chroma_qp_offset=-2 threads=12 lookahead_threads=2 sliced_threads=0 nr=0 decimate=1 interlaced=0 bluray_compat=0 constrained_intra=0 bframes=3 b_pyramid=2 b_adapt=1 b_bias=0 direct=1 weightb=1 open_gop=0 weightp=2 keyint=250 keyint_min=25 scenecut=40 intra_refresh=0 rc_lookahead=40 rc=abr mbtree=1 bitrate=1024 ratetol=1.0 qcomp=0.60 qpmin=0 qpmax=69 qpstep=4 ip_ratio=1.40 aq=1:1.00
</p><p>Output #0, mp4, to 'C:\Users\wwp\desktop\fup00.mp4':
  Metadata:
    encoder         : Lavf58.6.100
    Stream #0:0: Video: h264 (libx264) (avc1 / 0x31637661), yuv420p, 1280x692, q=-1--1, 1024 kb/s, 25 fps, 12800 tbn, 25 tbc</p><p>
    Metadata:
      encoder         : Lavc58.9.100 libx264
    Side data:
      cpb: bitrate max/min/avg: 0/0/1024000 buffer size: 0 vbv_delay: -1
</p><p>frame=   13 fps=0.0 q=0.0 size=       0kB time=00:00:00.00 bitrate=N/A speed=   0x    </p><p>frame=   25 fps= 25 q=0.0 size=       0kB time=00:00:00.00 bitrate=N/A speed=   0x    </p><p>frame=   38 fps= 25 q=0.0 size=       0kB time=00:00:00.00 bitrate=N/A speed=   0x    </p><p>frame=   50 fps= 25 q=0.0 size=       0kB time=00:00:00.00 bitrate=N/A speed=   0x    </p><p>frame=   62 fps= 24 q=38.0 size=       0kB time=00:00:00.12 bitrate=   3.2kbits/s speed=0.0473x    </p><p>frame=   75 fps= 24 q=30.0 size=       0kB time=00:00:00.64 bitrate=   0.6kbits/s speed=0.208x    </p><p>frame=   87 fps= 24 q=23.0 size=       0kB time=00:00:01.12 bitrate=   0.3kbits/s speed=0.312x    </p><p>frame=  100 fps= 24 q=28.0 size=       0kB time=00:00:01.64 bitrate=   0.2kbits/s speed=0.401x    </p><p>frame=  113 fps= 25 q=30.0 size=     256kB time=00:00:02.16 bitrate= 971.0kbits/s speed=0.47x    </p><p>frame=  115 fps= 24 q=-1.0 Lsize=     422kB time=00:00:04.48 bitrate= 771.6kbits/s speed=0.923x    
video:420kB audio:0kB subtitle:0kB other streams:0kB global headers:0kB muxing overhead: 0.511532%
</p><p>[libx264 @ 00000273379a3240] frame I:1     Avg QP:22.88  size: 61602
[libx264 @ 00000273379a3240] frame P:34    Avg QP:20.93  size:  7527
[libx264 @ 00000273379a3240] </p><p>frame B:80    Avg QP:30.01  size:  1396
[libx264 @ 00000273379a3240] consecutive B-frames:  5.2%  5.2%  2.6% 87.0%
[libx264 @ 00000273379a3240] mb I  I16..4: 45.7% 23.1% 31.2%
[libx264 @ 00000273379a3240] mb P  I16..4:  2.3%  1.1%  1.4%  P16..4:  5.6%  1.0%  0.8%  0.0%  0.0%    skip:87.8%
[libx264 @ 00000273379a3240] mb B  I16..4:  0.5%  0.1%  0.0%  B16..8:  3.8%  0.5%  0.2%  direct: 0.5%  skip:94.4%  L0:38.1% L1:58.7% BI: 3.2%
[libx264 @ 00000273379a3240] final ratefactor: 20.23
[libx264 @ 00000273379a3240] 8x8 transform intra:22.3% inter:34.7%
[libx264 @ 00000273379a3240] coded y,uvDC,uvAC intra: 22.1% 19.6% 13.4% inter: 1.8% 1.0% 0.6%
[libx264 @ 00000273379a3240] i16 v,h,dc,p: 35% 64%  0%  0%
[libx264 @ 00000273379a3240] i8 v,h,dc,ddl,ddr,vr,hd,vl,hu: 47% 20% 32%  0%  0%  0%  0%  0%  0%
[libx264 @ 00000273379a3240] i4 v,h,dc,ddl,ddr,vr,hd,vl,hu: 34% 30% 15%  2%  3%  4%  4%  3%  5%
[libx264 @ 00000273379a3240] i8c dc,h,v,p: 55% 34% 11%  0%
[libx264 @ 00000273379a3240] Weighted P-Frames: Y:0.0% UV:0.0%
[libx264 @ 00000273379a3240] ref P L0: 74.0% 10.1% 13.1%  2.7%
[libx264 @ 00000273379a3240]</p><p> ref B L0: 69.5% 28.5%  1.9%
[libx264 @ 00000273379a3240] ref B L1: 91.7%  8.3%
[libx264 @ 00000273379a3240] kb/s:746.40
</p>